# AST/ASF file generated using VICON BodyLanguage
# -----------------------------------------------
:version 1.10
:name VICON
:units
  mass 1.0
  length 0.45
  angle deg
:documentation
   .ast/.asf automatically generated from VICON data using
   VICON BodyBuilder and BodyLanguage model FoxedUp or BRILLIANT.MOD
:root
   order TX TY TZ RX RY RZ
   axis XYZ
   position 0 0 0  
   orientation 0 0 0 
:bonedata
  begin
     id 1 
     name lhipjoint
     direction 0.646657 -0.683706 0.338203 
     length 2.4948 
     axis 0 0 0  XYZ
  end
  begin
     id 2 
     name lfemur
     direction 0.34202 -0.939693 0  
     length 6.79491  
     axis 0 0 20  XYZ
    dof rx ry rz
    limits (-160.0 20.0)
           (-70.0 70.0)
           (-60.0 70.0)
  end
  begin
     id 3 
     name ltibia
     direction 0.34202 -0.939693 0   
     length 7.56807   
     axis 0 0 20   XYZ
    dof rx
    limits (-10.0 170.0)
  end
  begin
     id 4 
     name lfoot
     direction 0.0679796 -0.186772 0.980048   
     length 2.53018   
     axis -90 7.62852e-016 20   XYZ
    dof rx rz
    limits (-45.0 90.0)
           (-70.0 20.0)
  end
  begin
     id 5 
     name ltoes
     direction 1.53625e-011 -4.21881e-011 1   
     length 1.26912   
     axis -90 7.62852e-016 20   XYZ
    dof rx
    limits (-90.0 20.0)
  end
  begin
     id 6 
     name rhipjoint
     direction -0.618868 -0.704065 0.348274   
     length 2.42265  
     axis 0 0 0  XYZ 
  end
  begin
     id 7 
     name rfemur
     direction -0.34202 -0.939693 0   
     length 6.73814   
     axis 0 0 -20   XYZ
    dof rx ry rz
    limits (-160.0 20.0)
           (-70.0 70.0)
           (-70.0 60.0)
  end
  begin
     id 8 
     name rtibia
     direction -0.34202 -0.939693 0   
     length 7.66799   
     axis 0 0 -20   XYZ
    dof rx
    limits (-10.0 170.0)
 end
 begin
     id 9 
     name rfoot
     direction -0.0727352 -0.199838 0.977125   
     length 2.57224  
     axis -90 -7.62852e-016 -20   XYZ
    dof rx rz
    limits (-45.0 90.0)
           (-20.0 70.0)
  end
  begin
     id 10 
     name rtoes
     direction -1.53501e-011 -4.21858e-011 1   
     length 1.28858   
     axis -90 -7.62852e-016 -20   XYZ
    dof rx
    limits (-90.0 20.0)
  end
  begin
     id 11 
     name lowerback
     direction -0.0172471 0.995767 -0.0902851   
     length 2.20206   
     axis 0 0 0   XYZ
    dof rx ry rz
    limits (-20.0 45.0)
           (-30.0 30.0)
           (-30.0 30.0)
  end
  begin
     id 12 
     name upperback
     direction -0.000110737 0.999714 0.0239043   
     length 2.19523   
     axis 0 0 0   XYZ
    dof rx ry rz
    limits (-20.0 45.0)
           (-30.0 30.0)
           (-30.0 30.0)
  end
  begin
     id 13 
     name thorax
     direction 0.00704869 0.997783 0.0661741   
     length 2.21977   
     axis 0 0 0   XYZ
    dof rx ry rz
    limits (-20.0 45.0)
           (-30.0 30.0)
           (-30.0 30.0)
  end
  begin
     id 14 
     name lowerneck
     direction -0.00407501 0.995527 0.0943846   
     length 1.83142   
     axis 0 0 0   XYZ
    dof rx ry rz
    limits (-20.0 45.0)
           (-30.0 30.0)
           (-30.0 30.0)
  end
  begin
     id 15 
     name upperneck
     direction 0.0640586 0.986486 -0.150807   
     length 1.84616   
     axis 0 0 0   XYZ
    dof rx ry rz
    limits (-20.0 45.0)
           (-30.0 30.0)
           (-30.0 30.0)
  end
  begin
     id 16
     name head
     direction 0.0188017 0.99791 -0.0618239  
     length 1.85932  
     axis 0 0 0   XYZ
    dof rx ry rz
    limits (-20.0 45.0)
           (-30.0 30.0)
           (-30.0 30.0)
  end
  begin
     id 17 
     name lclavicle
     direction 0.976074 0.206905 0.066852  
     length 3.81043  
     axis 0 0 0   XYZ
    dof ry rz
    limits (-20.0 10.0)
           (0.0 20.0)
  end
  begin
     id 18 
     name lhumerus
     direction 1 -4.48971e-011 1.86916e-027   
     length 5.37587   
     axis 180 -30 -90   XYZ
    dof rx ry rz
    limits (-60.0 90.0)
           (-90.0 90.0)
           (-90.0 90.0)
  end
  begin
     id 19
     name lradius
     direction 1 -4.48968e-011 1.69187e-027   
     length 3.35977   
     axis 180 -30 -90   XYZ
    dof rx
    limits (-10.0 170.0)
  end
  begin
     id 20
     name lwrist
     direction 1 -4.48968e-011 5.8978e-027   
     length 1.67988   
     axis -3.27506e-015 90 90   XYZ
    dof ry
    limits (-180.0 0.0)
 end
  begin
     id 21 
     name lhand
     direction 1 -4.49028e-011 1.18071e-026   
     length 0.561859   
     axis -7.52654e-015 90 90   XYZ
    dof rx rz
    limits (-90.0 90.0)
           (-45.0 45.0)
  end
  begin
     id 22 
     name lfingers
     direction 1 -4.48927e-011 2.35758e-026   
     length 0.452985   
     axis -1.50534e-014 90 90   XYZ
    dof rx
    limits (0.0 90.0)
  end
  begin
     id 23
     name lthumb
     direction 0.707107 -6.34898e-011 0.707107   
     length 0.650399   
     axis -90 45 5.69224e-014   XYZ
    dof rx rz
    limits (-45.0 45.0)
           (-45.0 45.0)
  end
  begin
     id 24 
     name rclavicle
     direction -0.988403 0.151789 0.00439714   
     length 3.6942  
     axis 0 0 0   XYZ 
    dof ry rz
    limits (-10.0 20.0)
           (-20.0 0.0)
  end
  begin
     id 25 
     name rhumerus
     direction -1 -4.48978e-011 1.62495e-027  
     length 5.22819   
     axis 180 30 90   XYZ
    dof rx ry rz
    limits (-90.0 60.0)
           (-90.0 90.0)
           (-90.0 90.0)
  end
  begin
     id 26 
     name rradius
     direction -1 -4.48961e-011 3.47796e-027   
     length 3.40764   
     axis 180 30 90   XYZ
    dof rx
    limits (-10.0 170.0)
  end
  begin
     id 27 
     name rwrist
     direction -1 -4.48949e-011 5.89602e-027   
     length 1.70382   
     axis -3.27506e-015 -90 -90   XYZ
    dof ry
    limits (-180.0 0.0)
  end
  begin
     id 28
     name rhand
     direction -1 -4.48977e-011 1.17973e-026   
     length 0.583255   
     axis -7.52654e-015 -90 -90   XYZ
    dof rx rz
    limits (-90.0 90.0)
           (-45.0 45.0)
  end
  begin
     id 29
     name rfingers
     direction -1 -4.49099e-011 2.36408e-026   
     length 0.470235   
     axis -1.50534e-014 -90 -90   XYZ
    dof rx
    limits (0.0 90.0)
  end
  begin
     id 30
     name rthumb
     direction -0.707107 -6.35011e-011 0.707107   
     length 0.675167   
     axis -90 -45 -5.69224e-014   XYZ
    dof rx rz
    limits (-45.0 45.0)
           (-45.0 45.0)
  end
:hierarchy
  begin
    root lhipjoint rhipjoint lowerback
    lhipjoint lfemur
    lfemur ltibia
    ltibia lfoot
    lfoot ltoes
    rhipjoint rfemur
    rfemur rtibia
    rtibia rfoot
    rfoot rtoes
    lowerback upperback
    upperback thorax
    thorax lowerneck lclavicle rclavicle
    lowerneck upperneck
    upperneck head
    lclavicle lhumerus
    lhumerus lradius
    lradius lwrist
    lwrist lhand lthumb
    lhand lfingers
    rclavicle rhumerus
    rhumerus rradius
    rradius rwrist
    rwrist rhand rthumb
    rhand rfingers
  end

#!OML:ASF G:\JayActor3\Patient Classification 1\Patient 1\Session 2\male.ASF
:FULLY-SPECIFIED
:DEGREES
500
root 13.9746 17.6275 -7.76335 570.347 -100.179 -570.055
lowerback 3.38174 2.65489 5.2655
upperback 2.17296 3.65113 -1.78994
thorax 0.797663 1.89332 -4.88356
lowerneck -13.2125 -4.56116 -4.49883
upperneck -4.83626 -5.64033 4.93119
head 0.999088 -2.75515 2.06818
rclavicle 7.15625e-015 -6.36111e-015
rhumerus -18.7766 37.1615 -69.7176
rradius 84.7979
rwrist -7.06731
rhand -10.4036 8.28372
rfingers 7.12502
rthumb 15.595 -21.1076
lclavicle 7.15625e-015 -6.36111e-015
lhumerus -52.8524 -24.3343 67.2344
lradius 44.4815
lwrist 21.1879
lhand -4.38414 21.5739
lfingers 7.12502
lthumb 21.385 50.4137
rfemur -3.02659 -2.42797 26.8171
rtibia 21.2011
rfoot -9.6176 -2.06528
rtoes 22.9373
lfemur -47.82 13.6137 -15.6173
ltibia 102.043
lfoot -7.9026 -0.774843
ltoes -23.5857
501
root 13.7705 17.6424 -7.75619 571.405 -100.598 -571.196
lowerback 3.55435 2.8513 5.65726
upperback 2.19259 3.93167 -1.79451
thorax 0.785239 2.03863 -5.12073
lowerneck -13.1872 -4.77191 -4.71013
upperneck -4.5664 -5.88952 5.06013
head 1.10891 -2.86962 2.1324
rclavicle -4.16454e-014 0
rhumerus -16.9975 37.4713 -66.2231
rradius 85.7322
rwrist -7.34752
rhand -10.0098 8.17283
rfingers 7.12502
rthumb 15.9742 -21.1885
lclavicle -4.16454e-014 0
lhumerus -52.0607 -23.5858 64.2547
lradius 45.6686
lwrist 21.1056
lhand -3.64042 21.6044
lfingers 7.12502
lthumb 22.0992 50.3615
rfemur -2.00106 -2.63041 27.2427
rtibia 20.7168
rfoot -9.25271 -2.15972
rtoes 22.4601
lfemur -49.3273 12.6939 -16.4144
ltibia 100.296
lfoot -8.09627 -0.0495034
ltoes -23.2995
502
root 13.5657 17.6504 -7.74948 572.467 -101.006 -572.379
lowerback 3.75934 3.03402 6.02929
upperback 2.21599 4.19635 -1.76467
thorax 0.756241 2.17486 -5.31311
lowerneck -13.1189 -4.95339 -4.89519
upperneck -4.19777 -6.1056 5.16188
head 1.24147 -2.96762 2.18476
rclavicle -1.81888e-014 -8.74653e-015
rhumerus -15.1996 37.6875 -62.6311
rradius 86.5462
rwrist -7.7062
rhand -9.66755 8.09808
rfingers 7.12502
rthumb 16.3038 -21.2365
lclavicle -1.81888e-014 -8.74653e-015
lhumerus -51.2596 -22.8149 61.3728
lradius 46.9263
lwrist 20.9802
lhand -3.0206 21.5839
lfingers 7.12502
lthumb 22.6942 50.2695
rfemur -0.997547 -2.75931 27.7066
rtibia 20.3334
rfoot -8.86838 -2.28818
rtoes 22.1318
lfemur -50.478 11.8421 -17.104
ltibia 98.0785
lfoot -8.34974 0.737335
ltoes -23.0264
503
root 13.3608 17.6512 -7.74268 573.487 -101.423 -573.546
lowerback 3.97575 3.19565 6.39881
upperback 2.25212 4.43453 -1.70476
thorax 0.730901 2.29775 -5.47327
lowerneck -13.0391 -5.11065 -5.06431
upperneck -3.72764 -6.29356 5.2389
head 1.40366 -3.05149 2.22714
rclavicle -3.06128e-014 1.19271e-014
rhumerus -13.3964 37.8194 -58.9634
rradius 87.2619
rwrist -8.1026
rhand -9.36536 8.05655
rfingers 7.12502
rthumb 16.5947 -21.254
lclavicle -3.06128e-014 1.19271e-014
lhumerus -50.4427 -22.0107 58.5834
lradius 48.2614
lwrist 20.9714
lhand -2.54779 21.5196
lfingers 7.12502
lthumb 23.1479 50.1488
rfemur -0.0293713 -2.93405 28.1939
rtibia 20.0377
rfoot -8.45514 -2.3674
rtoes 21.9688
lfemur -51.3019 11.0652 -17.6893
ltibia 95.4184
lfoot -8.68358 1.51246
ltoes -22.7846
504
root 13.1563 17.6444 -7.73592 574.439 -101.864 -574.641
lowerback 4.17679 3.32968 6.77066
upperback 2.30137 4.63604 -1.62048
thorax 0.723169 2.40289 -5.60772
lowerneck -12.9596 -5.2458 -5.21885
upperneck -3.17589 -6.45598 5.29553
head 1.5914 -3.12285 2.26115
rclavicle -4.34344e-014 -1.59028e-014
rhumerus -11.5927 37.8776 -55.2325
rradius 87.8991
rwrist -8.47282
rhand -9.07956 8.05736
rfingers 7.12502
rthumb 16.8699 -21.2299
lclavicle -4.34344e-014 -1.59028e-014
lhumerus -49.6105 -21.1558 55.8744
lradius 49.6715
lwrist 21.1991
lhand -2.20469 21.4443
lfingers 7.12502
lthumb 23.4771 50.0318
rfemur 0.880678 -3.22103 28.6916
rtibia 19.8127
rfoot -8.03136 -2.34024
rtoes 21.9138
lfemur -51.8532 10.3602 -18.1811
ltibia 92.3426
lfoot -9.13199 2.22399
ltoes -22.6853
505
root 12.9517 17.6303 -7.72891 575.282 -102.316 -575.612
lowerback 4.34028 3.43594 7.13289
upperback 2.37117 4.79803 -1.52231
thorax 0.751864 2.48984 -5.71845
lowerneck -12.8937 -5.36056 -5.35358
upperneck -2.56348 -6.59556 5.33352
head 1.80013 -3.18337 2.28625
rclavicle 8.34896e-015 -1.03368e-014
rhumerus -9.79468 37.8914 -51.4522
rradius 88.4868
rwrist -8.79068
rhand -8.80994 8.07914
rfingers 7.12502
rthumb 17.1294 -21.1858
lclavicle 8.34896e-015 -1.03368e-014
lhumerus -48.7705 -20.2259 53.2288
lradius 51.1508
lwrist 21.6833
lhand -1.93901 21.3707
lfingers 7.12502
lthumb 23.7319 49.9254
rfemur 1.74524 -3.61728 29.1703
rtibia 19.6352
rfoot -7.63732 -2.1787
rtoes 21.8363
lfemur -52.1459 9.72886 -18.5998
ltibia 88.8802
lfoot -9.69389 2.82764
ltoes -22.6771
